PathFileType	4	(X/Y/Z)	s10c0303.trc
DataRate	CameraRate	NumFrames	NumMarkers	Units	OrigDataRate	OrigDataStartFrame	OrigNumFrames
200	200	4	50	mm	200	1500	2000
Frame#	Time	racr			lacr			c7			jug			rlel			rdr			llel			ldr			s2			lic			ric			lasi			rasi			rpsi			lpsi			rgt			lgt			rth1			rth2			rth3			rth4			rlfc			rmfc			rsh1			rsh2			rsh3			rsh4			rlmal			rmmal			rcal			rtoe			rmt5			lth1			lth2			lth4			lth3			llfc			lmfc			llmal			lmmal			lcal			lmt5			lsh1			lsh2			lsh3			lsh4			ltoe			SBIKE			LBIKE			RBIKE			
		X1	Y1	Z1	X2	Y2	Z2	X3	Y3	Z3	X4	Y4	Z4	X5	Y5	Z5	X6	Y6	Z6	X7	Y7	Z7	X8	Y8	Z8	X9	Y9	Z9	X10	Y10	Z10	X11	Y11	Z11	X12	Y12	Z12	X13	Y13	Z13	X14	Y14	Z14	X15	Y15	Z15	X16	Y16	Z16	X17	Y17	Z17	X18	Y18	Z18	X19	Y19	Z19	X20	Y20	Z20	X21	Y21	Z21	X22	Y22	Z22	X23	Y23	Z23	X24	Y24	Z24	X25	Y25	Z25	X26	Y26	Z26	X27	Y27	Z27	X28	Y28	Z28	X29	Y29	Z29	X30	Y30	Z30	X31	Y31	Z31	X32	Y32	Z32	X33	Y33	Z33	X34	Y34	Z34	X35	Y35	Z35	X36	Y36	Z36	X37	Y37	Z37	X38	Y38	Z38	X39	Y39	Z39	X40	Y40	Z40	X41	Y41	Z41	X42	Y42	Z42	X43	Y43	Z43	X44	Y44	Z44	X45	Y45	Z45	X46	Y46	Z46	X47	Y47	Z47	X48	Y48	Z48	X49	Y49	Z49	X50	Y50	Z50	
1500	7.5000	637.491047	1320.058150	-93.229270	691.277109	1288.701653	-383.993189	648.294895	1327.287725	-237.049459	594.418013	1192.112929	-226.103477	570.501546	1071.215059	14.519026	643.946238	872.575341	-57.953453	569.066687	1058.731607	-526.277299	641.112444	881.190042	-418.525174	113.212932	1150.216379	-202.388532	244.557314	1143.823905	-378.956106	310.620727	1133.913551	-97.702871	262.647397	1059.764557	-352.699333	310.336640	1054.172766	-102.778644	174.758720	1196.944656	-161.557531	160.391658	1209.356001	-269.942204	207.218392	1045.133493	-28.392811	130.592865	1026.500212	-398.868577	261.334096	901.536283	-9.651449	314.609817	831.785685	-27.364128	326.437128	747.413621	-30.814969	345.663339	848.398614	-39.265388	357.898243	643.555988	-47.181669	348.456543	633.871557	-162.192733	255.809203	588.533608	-13.516054	206.948802	515.285978	-26.556701	130.198176	475.907622	-30.858018	229.210071	495.237500	-51.070495	49.476955	408.311144	-44.936885	73.358606	402.319461	-126.043390	19.791072	451.573962	-94.180947	70.640442	212.499897	-104.878565	23.312278	280.294911	-39.530841	218.001682	926.809369	-420.825857	300.746044	900.173713	-416.535163	320.296933	930.199665	-409.324247	359.459680	833.647651	-415.648565	456.456634	764.848485	-402.451400	465.273149	757.141515	-281.076640	237.554127	442.600129	-390.179188	251.663262	446.637196	-308.703801	174.228481	417.882961	-345.087522	334.300887	340.896366	-405.470648	374.580221	669.645545	-425.884340	355.188627	584.970040	-414.912406	291.725118	522.671671	-409.317782	381.505299	574.084275	-389.693526	411.781024	361.759850	-352.673268	-217.189036	830.597339	-214.470411	-103.892156	80.636404	-418.394105	-103.904498	80.678471	-18.392290	
1501	7.5050	638.210461	1320.749901	-92.028542	690.312672	1289.314586	-382.629237	648.239514	1327.743767	-236.072187	594.128458	1192.624557	-224.546849	572.039514	1071.501708	15.546512	643.861360	872.678618	-57.763129	568.342800	1059.298481	-524.736655	641.102098	881.267624	-418.655407	113.033597	1149.701294	-204.938641	245.958240	1143.037360	-380.932413	308.751141	1134.489951	-98.273981	263.755118	1059.434355	-353.831892	309.621494	1054.623832	-103.792566	173.742621	1197.417203	-164.270659	160.439654	1208.943297	-272.692296	206.465913	1045.532723	-30.902456	130.436242	1025.674407	-400.453180	262.975187	903.024452	-10.969155	317.652364	834.427305	-28.075418	331.229786	750.299189	-31.868676	348.592258	851.454013	-39.460566	365.171196	647.348918	-48.212484	356.218437	638.703934	-163.840559	262.897746	592.787793	-13.996003	212.572125	520.880422	-27.361103	134.716907	483.526901	-31.249270	233.469749	500.885103	-52.724745	51.953639	417.785840	-45.117742	75.472284	411.361099	-126.322465	23.177623	461.694799	-94.222625	68.486649	221.485514	-104.838807	22.798964	290.439285	-39.626530	216.668101	924.381768	-422.615000	298.402746	894.945682	-417.762736	318.962485	924.420345	-410.595287	354.842553	826.515963	-416.508492	449.288329	753.548543	-402.701338	458.906709	745.934011	-282.524690	235.810548	428.806869	-389.976837	252.962138	435.530903	-303.534035	172.578602	403.210774	-344.834836	334.402308	329.941397	-405.530975	369.078285	657.496307	-428.094017	351.126643	571.748193	-414.266020	288.853848	508.392872	-408.833426	377.276865	561.723871	-388.577715	411.386403	352.591415	-352.638028	-217.168044	830.619435	-214.488905	-103.876046	80.627918	-418.387635	-103.909693	80.689510	-18.390158	
1502	7.5100	638.829245	1321.491097	-90.787693	689.285875	1290.081234	-381.407347	648.042926	1328.235214	-235.169117	594.126176	1193.003315	-223.007876	573.510182	1071.773274	16.817081	643.443152	873.247038	-58.008718	567.690217	1059.852227	-523.103047	641.173445	881.284129	-418.421071	113.528619	1149.414069	-208.181670	247.572822	1141.960604	-382.660186	306.900835	1134.978939	-99.036723	264.725232	1058.755750	-355.006598	308.807698	1054.635364	-105.133322	172.702197	1197.716765	-165.968178	160.836745	1208.233803	-275.491198	205.859042	1045.739705	-32.766559	130.559774	1024.476630	-401.818678	264.314580	904.477322	-12.312024	319.904059	836.808623	-29.197869	335.407996	752.962983	-32.932980	351.483442	854.681532	-39.108286	372.259318	651.030172	-49.294492	362.423199	644.466704	-164.949247	270.148731	597.017489	-14.536781	218.021903	526.293553	-28.347179	139.399911	490.761336	-31.674044	238.054854	506.532007	-54.227133	54.516045	427.338697	-45.230926	79.320794	420.545210	-126.700362	26.551121	471.774020	-94.459140	67.136850	230.757971	-104.910723	22.889659	300.623130	-39.699858	215.482011	921.662182	-424.231748	296.102837	889.481256	-418.935577	317.547813	917.835042	-410.833323	350.010554	819.172740	-417.213379	441.864770	741.841187	-402.688655	452.277922	734.373216	-284.054256	233.759348	415.286576	-389.769033	247.068160	421.671361	-308.444049	170.793527	389.719485	-346.066505	333.874574	318.829797	-405.596136	363.545456	643.160032	-426.820895	346.732256	558.353527	-413.326477	286.191129	493.383824	-407.479597	372.678002	549.261570	-387.131393	410.409707	343.373977	-352.789257	-217.131482	830.627693	-214.483283	-103.872620	80.606203	-418.376309	-103.893787	80.656639	-18.398306	
1503	7.5150	639.537875	1322.269823	-89.304054	688.102844	1290.898750	-380.347333	647.748885	1328.751903	-234.349697	594.405978	1193.266560	-221.441518	575.401539	1072.044978	17.903643	643.393725	873.331415	-57.868522	567.065021	1060.449376	-521.448752	641.165673	881.243731	-418.192406	113.532095	1148.889574	-210.810532	249.382166	1140.607539	-384.143418	304.913928	1135.210597	-99.989698	265.707231	1057.582827	-356.236263	307.895100	1054.625713	-106.758297	171.846549	1197.871107	-168.029639	161.580255	1206.179226	-277.004169	205.167017	1045.892873	-34.587364	130.700508	1023.081494	-403.515199	265.753498	905.788506	-13.473645	322.711412	839.090905	-29.803419	339.729362	755.590626	-33.832855	354.125958	857.552950	-39.177757	379.220900	654.875948	-50.158746	368.568699	649.488913	-166.404621	277.180075	601.288989	-15.248806	223.744945	532.109355	-29.043233	143.954048	498.075952	-31.765291	242.535954	511.997469	-55.799902	57.194631	437.124429	-45.411420	82.253655	429.582532	-126.861015	29.885286	481.985862	-94.802170	66.625343	240.235695	-104.905590	23.511798	310.990159	-39.824292	214.380323	918.659803	-425.740724	293.738957	883.602107	-420.048307	316.258525	911.254699	-411.990431	345.082560	811.372899	-417.828265	434.002485	729.870026	-402.490603	446.264004	722.791757	-285.122768	231.365107	402.110116	-389.799627	247.456676	409.639056	-302.817536	168.498830	375.666576	-345.573463	332.799028	307.881348	-405.613014	357.792874	630.023929	-427.234188	341.898415	545.158560	-412.370692	282.431691	478.833097	-406.944059	367.651312	536.651058	-385.444914	409.179274	334.130205	-353.401646	-217.113862	830.602663	-214.503773	-103.886398	80.603519	-418.378361	-103.903765	80.660924	-18.398991	
